<svg data-v-0dd9719b="" version="1.0" xmlns="http://www.w3.org/2000/svg" xmlns:xlink="http://www.w3.org/1999/xlink" width="100%" height="100%" viewBox="0 0 340.000000 250.000000" preserveAspectRatio="xMidYMid meet" color-interpolation-filters="sRGB" style="margin: auto;">   <g data-v-0dd9719b="" fill="#333" class="icon-text-wrapper icon-svg-group iconsvg" transform="translate(80.36499786376953,75.7149429321289)"><g class="iconsvg-imagesvg" transform="translate(59.63500213623047,0)"><g><rect fill="#333" fill-opacity="0" stroke-width="2" x="0" y="0" width="59.99999999999999" height="69.34011325551832" class="image-rect"></rect> <svg x="0" y="0" width="59.99999999999999" height="69.34011325551832" filtersec="colorsb4291690039" class="image-svg-svg primary" style="overflow: visible;"><svg xmlns="http://www.w3.org/2000/svg" viewBox="0 0 86.52999877929688 100"><path fill="#2084f7" d="M20.82 87.16L0 75.28V25.04l20.82 12.33v49.79z"></path><path fill="#22cfee" d="M18.95 14.03L0 25.04l20.82 12.33 18.95-10.83-20.82-12.51z"></path><path fill="#23b0f1" d="M86.53 50.55l-.11 24.39L43.03 100l.14-24.56 43.36-24.89z"></path><path fill="#2084f7" d="M24.1 88.87L43.03 100l.14-24.56-19.02-10.58-.05 24.01z"></path><path fill="#22cfee" d="M22.41 12.17L43.06 0l43.28 25.04L65.92 37.2 22.41 12.17z"></path><path fill="#23b0f1" d="M86.37 46.98l-.03-21.94L65.92 37.2l.02 21.81 20.43-12.03z"></path><path fill="#22cfee" d="M60.79 60.12L43.27 70.23 25.75 60.12V39.88l17.52-10.11 17.52 10.11v20.24z"></path></svg></svg> <!----></g></g> <g transform="translate(0,76.3401107788086)"><g data-gra="path-name" fill-rule="" class="tp-name iconsvg-namesvg"><g transform="scale(1)"><g><path d="M22.56-16.47L19.03 0 13.28 0 15.66-11.2 9.52 0 5.99 0 4.82-11.59 2.33 0 0 0 3.5-16.47 10.11-16.47 10.92-7.18 15.9-16.47 22.56-16.47ZM29.82-3.09L31.56-11.15 36.85-11.15 34.46 0 30.26 0 29.8-1.66 29.64-1.66Q28.97-0.86 27.81-0.32 26.66 0.21 25.49 0.21L25.49 0.21Q23.94 0.21 23.05-0.58 22.17-1.37 22.17-2.65L22.17-2.65Q22.17-3.29 22.39-4.27 22.61-5.24 22.79-6.09L22.79-6.09 23.88-11.15 29.15-11.15 27.85-5.08Q27.8-4.88 27.75-4.59 27.7-4.3 27.64-4.03 27.59-3.76 27.55-3.51 27.51-3.27 27.51-3.11L27.51-3.11Q27.51-2.72 27.68-2.45 27.85-2.18 28.29-2.18L28.29-2.18Q28.76-2.18 29.17-2.49 29.59-2.8 29.82-3.09L29.82-3.09ZM45.8-17.43L42.09 0 36.8 0 40.48-17.43 45.8-17.43ZM45.49-9.41L45.85-11.15Q46.81-11.36 47.53-11.62 48.26-11.88 48.87-12.27 49.48-12.66 50.04-13.23 50.6-13.8 51.24-14.63L51.24-14.63 53.91-14.63 53.16-11.15 55.19-11.15 54.85-9.41 52.8-9.41 51.74-4.36Q51.61-3.76 51.53-3.29 51.45-2.83 51.45-2.57L51.45-2.57Q51.45-2.05 51.83-1.92 52.2-1.79 53.24-1.79L53.24-1.79 52.85 0Q52.67 0.05 52.29 0.08 51.92 0.1 51.46 0.14 51.01 0.18 50.53 0.19 50.05 0.21 49.69 0.21L49.69 0.21Q49.04 0.21 48.42 0.12 47.79 0.03 47.3-0.25 46.81-0.52 46.51-1.04 46.21-1.56 46.21-2.44L46.21-2.44Q46.21-2.75 46.25-3.22 46.29-3.68 46.42-4.25L46.42-4.25 47.51-9.41 45.49-9.41ZM62.24-11.15L59.83 0 54.56 0 56.92-11.15 62.24-11.15ZM62.91-14.55L62.91-14.55Q62.91-13.95 62.67-13.51 62.42-13.07 62.02-12.76 61.62-12.45 61.1-12.29 60.58-12.14 60.03-12.14L60.03-12.14Q59-12.14 58.3-12.63 57.6-13.12 57.6-14.19L57.6-14.19Q57.6-14.76 57.83-15.21 58.06-15.66 58.47-15.96 58.87-16.26 59.4-16.42 59.93-16.57 60.5-16.57L60.5-16.57Q61.51-16.57 62.21-16.08 62.91-15.59 62.91-14.55ZM63.17-4.28L63.72-6.64 71.89-6.64 71.37-4.28 63.17-4.28ZM78.58-1.69L77.28 4.36 71.99 4.36 75.26-11.15 79.48-11.15 79.95-9.49 80.11-9.49Q81.04-10.48 82.19-10.9 83.35-11.33 84.46-11.33L84.46-11.33Q85.37-11.33 85.98-11.06 86.59-10.79 86.95-10.32 87.32-9.85 87.47-9.21 87.63-8.56 87.63-7.83L87.63-7.83Q87.63-7.47 87.58-6.74 87.52-6.02 87.34-5.12 87.16-4.23 86.82-3.28 86.49-2.33 85.93-1.56 85.37-0.78 84.53-0.29 83.69 0.21 82.52 0.21L82.52 0.21Q81.87 0.21 81.26 0.05 80.65-0.1 80.16-0.36 79.67-0.62 79.29-0.97 78.91-1.32 78.73-1.69L78.73-1.69 78.58-1.69ZM80.03-2.31L80.03-2.31Q80.65-2.31 81.07-2.97 81.48-3.63 81.74-4.53 82-5.42 82.12-6.31 82.23-7.21 82.23-7.65L82.23-7.65Q82.23-8.17 82.06-8.51 81.9-8.84 81.46-8.84L81.46-8.84Q80.96-8.84 80.52-8.49 80.08-8.14 79.87-7.88L79.87-7.88 78.86-3.14Q79.07-2.85 79.35-2.58 79.64-2.31 80.03-2.31ZM97.07-17.43L93.36 0 88.07 0 91.75-17.43 97.07-17.43ZM97.3-7.88L97.79-10.19Q99.12-10.84 100.5-11.14 101.89-11.44 103.6-11.44L103.6-11.44Q105.26-11.44 106.35-11.18 107.44-10.92 108.09-10.43 108.74-9.93 109-9.26 109.26-8.58 109.26-7.73L109.26-7.73Q109.26-7.24 109.19-6.66 109.13-6.09 109.05-5.71L109.05-5.71 107.83 0 103.65 0 103.19-1.66 103.03-1.66Q102.2-0.75 101.1-0.27 100 0.21 98.91 0.21L98.91 0.21Q98.29 0.21 97.69 0.03 97.09-0.16 96.63-0.53 96.16-0.91 95.87-1.49 95.59-2.07 95.59-2.9L95.59-2.9Q95.59-4.25 96.33-5.04 97.07-5.83 98.27-6.24 99.48-6.64 101-6.74 102.51-6.85 104.04-6.85L104.04-6.85Q104.09-7.11 104.17-7.59 104.25-8.07 104.25-8.43L104.25-8.43Q104.25-8.89 104-9.3 103.76-9.7 102.98-9.7L102.98-9.7Q102.07-9.7 101.64-9.17 101.22-8.64 101.09-7.88L101.09-7.88 97.3-7.88ZM103.34-3.63L103.76-5.63 103.29-5.63Q102.54-5.63 102.01-5.43 101.48-5.24 101.15-4.93 100.83-4.62 100.67-4.23 100.52-3.84 100.52-3.45L100.52-3.45Q100.52-2.83 100.84-2.52 101.16-2.2 101.6-2.2L101.6-2.2Q102.15-2.2 102.68-2.59 103.21-2.98 103.34-3.63L103.34-3.63ZM110.66-9.41L111.02-11.15Q111.98-11.36 112.7-11.62 113.43-11.88 114.04-12.27 114.65-12.66 115.21-13.23 115.76-13.8 116.41-14.63L116.41-14.63 119.08-14.63 118.33-11.15 120.35-11.15 120.02-9.41 117.97-9.41 116.91-4.36Q116.78-3.76 116.7-3.29 116.62-2.83 116.62-2.57L116.62-2.57Q116.62-2.05 117-1.92 117.37-1.79 118.41-1.79L118.41-1.79 118.02 0Q117.84 0.05 117.46 0.08 117.09 0.1 116.63 0.14 116.18 0.18 115.7 0.19 115.22 0.21 114.86 0.21L114.86 0.21Q114.21 0.21 113.59 0.12 112.96 0.03 112.47-0.25 111.98-0.52 111.68-1.04 111.38-1.56 111.38-2.44L111.38-2.44Q111.38-2.75 111.42-3.22 111.46-3.68 111.59-4.25L111.59-4.25 112.68-9.41 110.66-9.41ZM120.82-9.41L121.21-11.15 123.21-11.15 123.44-12.21Q123.78-13.77 124.43-14.85 125.07-15.92 125.97-16.6 126.86-17.27 128-17.57 129.15-17.87 130.44-17.87L130.44-17.87Q131.25-17.87 132.15-17.76 133.06-17.66 134.05-17.43L134.05-17.43 133.63-15.35Q133.06-15.43 132.41-15.47 131.76-15.51 131.38-15.51L131.38-15.51Q130.86-15.51 130.48-15.43 130.11-15.35 129.82-15.13 129.53-14.91 129.33-14.52 129.12-14.13 128.99-13.49L128.99-13.49 128.5-11.15 131.22-11.15 130.88-9.41 128.13-9.41 126.14 0 120.85 0 122.84-9.41 120.82-9.41ZM138.4-11.44L138.4-11.44Q141.49-11.44 142.89-10.35L142.89-10.35Q144.37-9.21 144.37-6.56L144.37-6.56Q144.37-4.93 143.82-3.62 143.28-2.31 142.29-1.45L142.29-1.45Q140.32 0.21 136.59 0.21L136.59 0.21Q133.4 0.21 132.02-1.01L132.02-1.01Q130.55-2.28 130.55-4.82L130.55-4.82Q130.55-6.51 131.23-7.88 131.92-9.26 133.22-10.17L133.22-10.17Q135.11-11.44 138.4-11.44ZM136.64-1.56L136.64-1.56Q137.29-1.56 137.77-2.28 138.25-3.01 138.53-4.06 138.82-5.11 138.96-6.24 139.1-7.36 139.1-8.19L139.1-8.19Q139.1-8.92 138.96-9.3 138.82-9.67 138.35-9.67L138.35-9.67Q137.65-9.67 137.15-8.92 136.64-8.17 136.33-7.13 136.02-6.09 135.88-5.01 135.73-3.92 135.73-3.24L135.73-3.24Q135.73-1.56 136.64-1.56ZM144.89 0L147.25-11.15 151.47-11.15 151.86-9.21 152.04-9.21Q152.64-10.14 153.57-10.79 154.51-11.44 156.04-11.44L156.04-11.44Q156.14-11.44 156.36-11.42 156.58-11.41 156.85-11.35 157.13-11.28 157.43-11.16 157.72-11.05 158.01-10.84L158.01-10.84 156.87-5.5 154.04-5.5Q153.99-7.11 153.76-7.74 153.52-8.38 153-8.38L153-8.38Q152.74-8.38 152.45-8.26 152.15-8.14 151.84-7.75L151.84-7.75 150.18 0 144.89 0ZM164.47-9.49L164.62-9.49Q165.17-10.01 165.84-10.45L165.84-10.45Q166.44-10.81 167.27-11.13 168.1-11.44 169.13-11.44L169.13-11.44Q170.38-11.44 170.99-10.87 171.6-10.3 171.68-9.47L171.68-9.47 171.83-9.47Q172.43-10.01 173.13-10.45L173.13-10.45Q173.72-10.81 174.53-11.13 175.33-11.44 176.24-11.44L176.24-11.44Q177.59-11.44 178.43-10.7 179.27-9.96 179.27-8.79L179.27-8.79Q179.27-8.19 179.07-7.21 178.86-6.22 178.6-5.06L178.6-5.06 177.51 0 172.4 0 173.8-6.77Q173.88-7.16 173.96-7.52 174.04-7.88 174.04-8.12L174.04-8.12Q174.04-8.48 173.83-8.73 173.62-8.97 173.23-8.97L173.23-8.97Q172.74-8.97 172.31-8.62 171.88-8.27 171.65-8.04L171.65-8.04 169.96 0 165.11 0 166.54-6.77Q166.59-7.11 166.67-7.46 166.75-7.81 166.75-8.09L166.75-8.09Q166.75-8.48 166.55-8.73 166.36-8.97 165.97-8.97L165.97-8.97Q165.5-8.97 165.08-8.64 164.65-8.3 164.41-8.07L164.41-8.07 162.7 0 157.41 0 159.77-11.15 164-11.15 164.47-9.49Z" transform="translate(0, 17.8700008392334)"></path></g> <!----> <!----> <!----> <!----> <!----> <!----> <!----></g></g> <!----></g></g><defs v-gra="od"></defs></svg>